<svg xmlns="http://www.w3.org/2000/svg" viewBox="0 0 16 16">
  <defs>
    <style>.canvas{fill: none; opacity: 0;}.light-defaultgrey-10{fill: #212121; opacity: 0.1;}.light-defaultgrey{fill: #212121; opacity: 1;}.cls-1{opacity:0.75;}</style>
  </defs>
  <title>IconLightComputer</title>
  <g id="canvas">
    <path class="canvas" d="M16,16H0V0H16Z" />
  </g>
  <g id="level-1">
    <path class="light-defaultgrey-10" d="M14.5,1.5v10H12V6.086L10.914,5H8.5V1.5a1,1,0,0,1,1-1h4A1,1,0,0,1,14.5,1.5Z" />
    <path class="light-defaultgrey" d="M15,1.5v10l-.5.5H12V11h2V1.5a.5.5,0,0,0-.5-.5h-4a.5.5,0,0,0-.5.5V5H8V1.5A1.5,1.5,0,0,1,9.5,0h4A1.5,1.5,0,0,1,15,1.5Z" />
    <g class="cls-1">
      <path class="light-defaultgrey" d="M13,3V4H10V3ZM12,8h1V7H12Zm0,2h1V9H12Z" />
    </g>
    <path class="light-defaultgrey-10" d="M10.5,12.5H.5v-6h10Z" />
    <path class="light-defaultgrey" d="M10.5,6H.5L0,6.5v6l.5.5H5v1H3v1H8V14H6V13h4.5l.5-.5v-6ZM10,12H1V7h9Z" />
  </g>
</svg>
