<svg xmlns="http://www.w3.org/2000/svg" viewBox="0 0 16 16">
  <defs>
    <style>.canvas{fill: none; opacity: 0;}.light-defaultgrey-10{fill: #212121; opacity: 0.1;}.light-defaultgrey{fill: #212121; opacity: 1;}</style>
  </defs>
  <title>IconLightDottedSplitter</title>
  <g id="canvas" class="canvas">
    <path class="canvas" d="M16,0V16H0V0Z" />
  </g>
  <g id="level-1">
    <path class="light-defaultgrey-10" d="M2.5,8.5a1,1,0,1,1-1-1A1,1,0,0,1,2.5,8.5Zm3-1a1,1,0,1,0,1,1A1,1,0,0,0,5.5,7.5Zm4,0a1,1,0,1,0,1,1A1,1,0,0,0,9.5,7.5Zm4,0a1,1,0,1,0,1,1A1,1,0,0,0,13.5,7.5Z" />
    <path class="light-defaultgrey" d="M1.5,10A1.5,1.5,0,1,1,3,8.5,1.5,1.5,0,0,1,1.5,10Zm0-2a.5.5,0,1,0,.5.5A.5.5,0,0,0,1.5,8Zm4,2A1.5,1.5,0,1,1,7,8.5,1.5,1.5,0,0,1,5.5,10Zm0-2a.5.5,0,1,0,.5.5A.5.5,0,0,0,5.5,8Zm4,2A1.5,1.5,0,1,1,11,8.5,1.5,1.5,0,0,1,9.5,10Zm0-2a.5.5,0,1,0,.5.5A.5.5,0,0,0,9.5,8Zm4,2A1.5,1.5,0,1,1,15,8.5,1.5,1.5,0,0,1,13.5,10Zm0-2a.5.5,0,1,0,.5.5A.5.5,0,0,0,13.5,8Z" />
  </g>
</svg>
