<svg xmlns="http://www.w3.org/2000/svg" viewBox="0 0 16 16">
  <defs>
    <style>.canvas{fill: none; opacity: 0;}.light-defaultgrey-10{fill: #212121; opacity: 0.1;}.light-defaultgrey{fill: #212121; opacity: 1;}.light-blue{fill: #005dba; opacity: 1;}.cls-1{opacity:0.75;}</style>
  </defs>
  <title>FileDestination</title>
  <g id="canvas">
    <path class="canvas" d="M16,16H0V0H16Z" />
  </g>
  <g id="level-1">
    <g class="cls-1">
      <path class="light-defaultgrey-10" d="M10.5,1.5H2V7h.88l-.65-.65L4.35,4.23l3.5,3.5V9.27l-3.5,3.5L2.23,10.65,2.88,10H2v4.5H13.5V4.5Z" />
      <path class="light-defaultgrey" d="M14,4.5v10l-.5.5H2.5L2,14.5V10H3v4H13V5H10V2H3V7H2V1.5L2.5,1h8l.354.146,3,3Z" />
    </g>
    <path class="light-blue" d="M5.293,8,3.646,6.354l.708-.708,2.5,2.5v.708l-2.5,2.5-.708-.708L5.293,9H0V8Z" />
  </g>
</svg>
