<svg xmlns="http://www.w3.org/2000/svg" viewBox="0 0 16 16">
  <defs>
    <style>.canvas{fill: none; opacity: 0;}.light-defaultgrey-10{fill: #212121; opacity: 0.1;}.light-defaultgrey{fill: #212121; opacity: 1;}.cls-1{opacity:0.75;}</style>
  </defs>
  <title>IconLightNetworkNDISDriver</title>
  <g id="canvas">
    <path class="canvas" d="M16,16H0V0H16Z" />
  </g>
  <g id="level-1">
    <path class="light-defaultgrey-10" d="M9.5,14.5h-3v-2h3Z" />
    <path class="light-defaultgrey-10" d="M12.5,10.5h-9v-9h9Z" />
    <path class="light-defaultgrey" d="M9.5,15h-3L6,14.5v-2l.5-.5h3l.5.5v2ZM7,14H9V13H7Z" />
    <path class="light-defaultgrey" d="M12.5,1h-9L3,1.5v9l.5.5h9l.5-.5v-9ZM12,10H4V2h8Z" />
    <path class="light-defaultgrey" d="M6.5,3A1.5,1.5,0,1,0,8,4.5,1.5,1.5,0,0,0,6.5,3Zm0,2A.5.5,0,1,1,7,4.5.5.5,0,0,1,6.5,5Zm3,1A1.5,1.5,0,1,0,11,7.5,1.5,1.5,0,0,0,9.5,6Zm0,2a.5.5,0,1,1,.5-.5A.5.5,0,0,1,9.5,8Z" />
    <g class="cls-1">
      <path class="light-defaultgrey" d="M10,4.5v2H9V5H7.5V4h2Z" />
    </g>
    <g class="cls-1">
      <path class="light-defaultgrey" d="M2,13H6v1H2Zm8,0v1h4V13ZM9,11H7v1H9Z" />
    </g>
  </g>
</svg>
